<svg width="64" height="64" viewBox="0 0 64 64" xmlns="http://www.w3.org/2000/svg">
  <!-- Background circle with halo effect -->
  <circle cx="32" cy="32" r="29" fill="none" stroke="#FFD700" stroke-width="3" stroke-opacity="0.8"/>
  
  <!-- 5-pointed star -->
  <polygon points="32,6.4 35.776,23.264 51.2,25.6 40.8,36.736 43.552,52.8 32,44.8 20.448,52.8 23.2,36.736 12.8,25.6 28.224,23.264" fill="#FFD700" stroke="#FFA500" stroke-width="1"/>
  
  <!-- Star eyes (small stars) -->
  <polygon points="24,27 24.6,28.08 25.8,28.2 24.9,29.04 25.14,30.24 24,29.64 22.86,30.24 23.1,29.04 22.2,28.2 23.4,28.08" fill="#333333"/>
  <polygon points="40,27 40.6,28.08 41.8,28.2 40.9,29.04 41.14,30.24 40,29.64 38.86,30.24 39.1,29.04 38.2,28.2 39.4,28.08" fill="#333333"/>
  
  <!-- Happy smile -->
  <path d="M 26 35 Q 32 40 38 35" stroke="#333333" stroke-width="2" fill="none" stroke-linecap="round"/>
</svg>
